<svg xmlns="http://www.w3.org/2000/svg" viewBox="0 0 270.95 270.95"><defs><style>.cls-1{fill:#5367b0;stroke:#fff;stroke-miterlimit:10;}.cls-2{fill:#231f20;}</style></defs><title>questionmark2</title><g id="Layer_2" data-name="Layer 2"><circle class="cls-1" cx="135.48" cy="135.48" r="134.98"/></g><g id="Layer_1" data-name="Layer 1"><path class="cls-2" d="M99,83.83a42.3,42.3,0,0,1,2-30.32L102.3,51c.48-.8,1-1.59,1.48-2.39a40.3,40.3,0,0,1,3.4-4.62,13.8,13.8,0,0,1,2.15-1.88,20.81,20.81,0,0,1,2.4-1.54c.82-.47,1.62-1,2.41-1.48l2.48-1.33a52.7,52.7,0,0,1,10.29-3.95,67.78,67.78,0,0,1,10.51-1.93,92.05,92.05,0,0,1,10.24-.41,73.54,73.54,0,0,1,20.73,2.94c1.7.54,3.4,1,5.06,1.73a51.4,51.4,0,0,1,5,2.15c.83.36,1.62.82,2.41,1.26l2.38,1.34,2.28,1.53a23.38,23.38,0,0,1,2.24,1.6,46.27,46.27,0,0,1,4.21,3.58l2,1.94c.68.63,1.22,1.38,1.84,2.07l1.78,2.12c.57.73,1.08,1.49,1.62,2.24s1,1.53,1.51,2.32,1,1.57,1.39,2.39a57.33,57.33,0,0,1,6.46,20.68A77.11,77.11,0,0,1,209,91.81a92.33,92.33,0,0,1-.58,10.26,66.55,66.55,0,0,1-5.93,20.45,64.91,64.91,0,0,1-5.49,9.27,42.19,42.19,0,0,1-7.87,8.41c-1.51,1.21-3,2.25-4.45,3.19l-3.84,2.5a32.88,32.88,0,0,0-5.82,4.87A40.9,40.9,0,0,0,166.9,164a52.91,52.91,0,0,0-2.3,7.81,37.09,37.09,0,0,0-.69,4.11c-.08.69,0,1.4-.12,2.1a11.88,11.88,0,0,1-.41,2.09c-.42,1.39-.8,2.81-1.15,4.28-.19.72-.35,1.49-.52,2.24l-.26,1.2-.25,1.1a78.44,78.44,0,0,0-1.57,8.82,92.58,92.58,0,0,0-.29,18.73,69.26,69.26,0,0,1-8.28-17.89,74.22,74.22,0,0,1-2.29-9.93l-.39-2.4c-.12-.81-.26-1.6-.37-2.44-.22-1.66-.43-3.37-.57-5.1a16.53,16.53,0,0,1,.55-5.13c.19-.85.31-1.7.45-2.56l.52-2.57a68.34,68.34,0,0,1,3-10.18,57.09,57.09,0,0,1,11.44-18.5,49.47,49.47,0,0,1,8.53-7.18l4-2.62c1.18-.78,2.25-1.52,3.18-2.27a25.78,25.78,0,0,0,4.9-5.27,48.47,48.47,0,0,0,4.06-6.87,50.13,50.13,0,0,0,4.48-15.46,75.47,75.47,0,0,0,.46-8.48,62.55,62.55,0,0,0-.42-8.32,41.32,41.32,0,0,0-4.63-15,18.42,18.42,0,0,0-1-1.66A17.24,17.24,0,0,0,186,65.09c-.38-.51-.73-1.06-1.12-1.56l-1.25-1.47a17.43,17.43,0,0,0-1.27-1.44L181,59.28a31.69,31.69,0,0,0-2.93-2.5c-8.21-6.27-19.33-9.27-30.46-9.29a75.45,75.45,0,0,0-8.51.34,51.07,51.07,0,0,0-7.94,1.45A36.86,36.86,0,0,0,123.9,52l-1.66.88c-.52.34-1,.69-1.53,1.07a8.07,8.07,0,0,0-.73.58c-.22.21-.44.42-.68.62a9.87,9.87,0,0,1-1.51,1,33.48,33.48,0,0,0-3.24,2L113,59.41l-1.51,1.3A35.29,35.29,0,0,0,106,67,48.89,48.89,0,0,0,99,83.83Z" transform="translate(-13.53 -11.27)"/><path class="cls-2" d="M166.6,233.5c-1.26-1.05-8.38-6.63-15-4s-9.47,12.18-7,19.33c2.76,8,12.57,14.2,20.33,10.67,6.79-3.09,9.07-12.29,7-18.67A15.73,15.73,0,0,0,166.6,233.5Z" transform="translate(-13.53 -11.27)"/></g></svg>